<svg xmlns="http://www.w3.org/2000/svg" xmlns:xlink="http://www.w3.org/1999/xlink" width="500" zoomAndPan="magnify" viewBox="0 0 375 374.999991" height="500" preserveAspectRatio="xMidYMid meet" version="1.2"><defs><clipPath id="41cf43972b"><path d="M 110.703125 119 L 241 119 L 241 249.988281 L 110.703125 249.988281 Z M 110.703125 119 "/></clipPath></defs><g id="ecc22c3cf0"><path style=" stroke:none;fill-rule:evenodd;fill:#eedc9b;fill-opacity:1;" d="M 201.441406 183.867188 C 184.101562 156.882812 159.96875 146.5625 128.683594 150.546875 C 124.382812 156.476562 121.125 163.222656 119.269531 170.558594 C 146.703125 154.484375 179.800781 160.1875 201.441406 183.867188 Z M 201.441406 183.867188 "/><path style=" stroke:none;fill-rule:evenodd;fill:#eedc9b;fill-opacity:1;" d="M 199.132812 191.519531 C 175.542969 169.96875 146.160156 162.273438 117.546875 186.132812 C 117.683594 191.65625 118.542969 196.996094 120.128906 202.023438 C 138.464844 183.371094 168.117188 175.71875 199.132812 191.519531 Z M 199.132812 191.519531 "/><path style=" stroke:none;fill-rule:nonzero;fill:#eedc9b;fill-opacity:1;" d="M 237.253906 101.332031 L 193.742188 232.175781 C 193.699219 232.355469 193.472656 232.492188 193.246094 232.402344 C 193.066406 232.355469 192.929688 232.128906 193.019531 231.949219 L 231.457031 99.523438 C 231.910156 97.890625 233.628906 96.988281 235.214844 97.441406 C 236.84375 97.890625 237.75 99.613281 237.296875 101.199219 C 237.296875 101.242188 237.296875 101.289062 237.253906 101.332031 Z M 237.253906 101.332031 "/><path style=" stroke:none;fill-rule:nonzero;fill:#eedc9b;fill-opacity:1;" d="M 263.421875 113.828125 L 195.960938 234.121094 C 195.871094 234.300781 195.644531 234.394531 195.417969 234.257812 C 195.238281 234.167969 195.191406 233.941406 195.285156 233.757812 L 258.03125 110.976562 C 258.800781 109.484375 260.613281 108.894531 262.109375 109.664062 C 263.601562 110.433594 264.191406 112.246094 263.421875 113.738281 C 263.464844 113.738281 263.464844 113.785156 263.421875 113.828125 Z M 263.421875 113.828125 "/><path style=" stroke:none;fill-rule:nonzero;fill:#eedc9b;fill-opacity:1;" d="M 223.035156 147.558594 L 223.125 147.695312 C 226.566406 152.085938 229.328125 156.839844 231.410156 161.820312 L 234.082031 156.566406 C 232.179688 152.671875 229.917969 148.917969 227.246094 145.476562 L 227.246094 145.292969 L 226.65625 144.707031 C 225.933594 143.753906 225.164062 142.847656 224.394531 141.988281 L 222.675781 147.105469 C 222.808594 147.242188 222.898438 147.375 223.035156 147.558594 Z M 223.035156 147.558594 "/><g clip-rule="nonzero" clip-path="url(#41cf43972b)"><path style=" stroke:none;fill-rule:nonzero;fill:#eedc9b;fill-opacity:1;" d="M 236.890625 163.3125 C 236.84375 163.132812 236.753906 162.949219 236.707031 162.769531 L 233.628906 168.203125 C 235.125 173.546875 235.9375 179.070312 235.9375 184.773438 C 235.9375 200.074219 230.1875 214.652344 219.777344 225.835938 C 208.414062 238.058594 192.339844 245.03125 175.679688 245.03125 C 153.585938 245.03125 133.304688 232.945312 122.710938 213.523438 C 120.808594 210.035156 119.269531 206.367188 118.089844 202.609375 C 116.460938 197.3125 115.554688 191.746094 115.421875 186.132812 C 115.421875 185.679688 115.421875 185.226562 115.421875 184.773438 C 115.421875 179.792969 116.054688 174.8125 117.230469 170.015625 C 119.132812 162.5 122.390625 155.527344 126.964844 149.277344 C 130.269531 144.75 134.207031 140.675781 138.644531 137.234375 C 149.195312 128.996094 161.871094 124.605469 175.273438 124.511719 C 175.363281 124.511719 175.5 124.511719 175.589844 124.511719 C 175.769531 124.511719 175.90625 124.511719 176.085938 124.511719 C 176.132812 124.511719 176.222656 124.511719 176.269531 124.511719 L 176.3125 124.511719 C 176.402344 124.511719 176.496094 124.511719 176.585938 124.511719 C 176.765625 124.511719 176.902344 124.511719 177.082031 124.511719 C 177.128906 124.511719 177.128906 124.511719 177.171875 124.511719 L 177.21875 124.511719 C 177.355469 124.511719 177.445312 124.511719 177.582031 124.511719 C 177.761719 124.511719 177.945312 124.511719 178.078125 124.511719 C 193.335938 125.148438 207.6875 131.484375 218.328125 142.214844 L 219.777344 137.191406 C 208.503906 126.6875 193.835938 120.484375 178.261719 119.851562 C 178.078125 119.851562 177.898438 119.851562 177.71875 119.851562 C 177.582031 119.851562 177.445312 119.851562 177.308594 119.851562 C 177.265625 119.851562 177.21875 119.851562 177.171875 119.851562 C 176.992188 119.851562 176.8125 119.851562 176.675781 119.851562 C 176.585938 119.851562 176.449219 119.851562 176.359375 119.851562 C 176.269531 119.851562 176.179688 119.851562 176.132812 119.851562 C 175.816406 119.851562 175.542969 119.851562 175.226562 119.851562 C 167.9375 119.894531 160.828125 121.117188 154.039062 123.5625 C 147.472656 125.871094 141.316406 129.265625 135.792969 133.566406 C 131.039062 137.28125 126.785156 141.671875 123.207031 146.5625 C 118.273438 153.308594 114.742188 160.824219 112.703125 168.882812 C 111.480469 174.089844 110.800781 179.429688 110.800781 184.816406 C 110.800781 185.316406 110.800781 185.8125 110.800781 186.3125 C 110.9375 192.332031 111.890625 198.308594 113.699219 204.058594 C 114.96875 208.132812 116.644531 212.074219 118.679688 215.832031 C 124.15625 225.925781 132.261719 234.394531 142.085938 240.371094 C 147.066406 243.402344 152.410156 245.710938 157.976562 247.296875 C 163.726562 248.925781 169.703125 249.742188 175.726562 249.742188 C 184.871094 249.742188 193.742188 247.882812 202.074219 244.171875 C 206.058594 242.40625 209.90625 240.1875 213.4375 237.652344 C 216.96875 235.117188 220.273438 232.21875 223.21875 229.050781 C 234.445312 217.007812 240.601562 201.34375 240.601562 184.863281 C 240.511719 177.4375 239.289062 170.195312 236.890625 163.3125 Z M 236.890625 163.3125 "/></g><path style=" stroke:none;fill-rule:evenodd;fill:#eedc9b;fill-opacity:1;" d="M 208.730469 212.617188 L 196.503906 234.4375 C 196.28125 234.847656 195.828125 235.027344 195.375 234.9375 C 195.285156 234.9375 195.191406 234.890625 195.148438 234.847656 C 194.695312 234.574219 194.511719 233.984375 194.738281 233.53125 L 206.464844 210.578125 C 205.199219 209.492188 203.929688 208.453125 202.574219 207.457031 L 194.332031 232.355469 C 194.152344 232.855469 193.652344 233.125 193.15625 232.988281 C 193.15625 232.988281 193.109375 232.988281 193.109375 232.988281 C 192.613281 232.808594 192.339844 232.265625 192.476562 231.765625 L 200.082031 205.554688 C 177.082031 190.296875 145.753906 192.378906 124.929688 212.253906 C 124.835938 212.34375 124.703125 212.433594 124.609375 212.527344 C 134.480469 230.636719 153.632812 242.90625 175.726562 242.90625 C 192.523438 242.90625 207.6875 235.75 218.28125 224.386719 C 216.109375 220.8125 213.484375 217.414062 210.496094 214.292969 C 209.863281 213.703125 209.316406 213.160156 208.730469 212.617188 Z M 208.730469 212.617188 "/><path style=" stroke:none;fill-rule:evenodd;fill:#eedc9b;fill-opacity:1;" d="M 176.628906 128.089844 C 191.433594 128.453125 206.148438 134.15625 217.601562 145.023438 L 217.695312 144.660156 C 207.644531 134.113281 193.609375 127.320312 178.035156 126.730469 C 177.851562 126.730469 177.71875 126.730469 177.535156 126.730469 C 177.398438 126.730469 177.308594 126.730469 177.171875 126.730469 C 177.128906 126.730469 177.082031 126.730469 177.039062 126.730469 C 176.902344 126.730469 176.722656 126.730469 176.585938 126.730469 C 176.496094 126.730469 176.402344 126.730469 176.269531 126.730469 C 176.175781 126.730469 176.132812 126.730469 176.042969 126.730469 C 175.90625 126.730469 175.726562 126.730469 175.589844 126.730469 C 175.5 126.730469 175.363281 126.730469 175.273438 126.730469 C 161.960938 126.824219 149.691406 131.394531 139.957031 139 C 144.804688 135.652344 150.007812 133.070312 155.441406 131.304688 C 177.082031 135.152344 192.566406 155.027344 202.253906 175.445312 C 201.03125 152.765625 187.996094 139.726562 176.628906 128.089844 Z M 176.628906 128.089844 "/></g></svg>