<svg xmlns="http://www.w3.org/2000/svg" xmlns:xlink="http://www.w3.org/1999/xlink" width="500" zoomAndPan="magnify" viewBox="0 0 375 374.999991" height="500" preserveAspectRatio="xMidYMid meet" version="1.2"><defs><clipPath id="71acd76ffb"><path d="M 106 91.472656 L 151 91.472656 L 151 227 L 106 227 Z M 106 91.472656 "/></clipPath><clipPath id="26c5402358"><path d="M 108 103 L 177.753906 103 L 177.753906 229 L 108 229 Z M 108 103 "/></clipPath><clipPath id="c91cb34aa8"><path d="M 24.003906 114 L 154 114 L 154 244.472656 L 24.003906 244.472656 Z M 24.003906 114 "/></clipPath></defs><g id="023b31b670"><path style=" stroke:none;fill-rule:evenodd;fill:#eedc9b;fill-opacity:1;" d="M 114.742188 178.351562 C 97.402344 151.371094 73.269531 141.046875 41.984375 145.03125 C 37.683594 150.960938 34.425781 157.707031 32.570312 165.042969 C 60.003906 148.96875 93.097656 154.675781 114.742188 178.351562 Z M 114.742188 178.351562 "/><path style=" stroke:none;fill-rule:evenodd;fill:#eedc9b;fill-opacity:1;" d="M 112.429688 186.003906 C 88.84375 164.453125 59.460938 156.757812 30.847656 180.617188 C 30.984375 186.140625 31.84375 191.480469 33.429688 196.507812 C 51.765625 177.855469 81.417969 170.203125 112.429688 186.003906 Z M 112.429688 186.003906 "/><g clip-rule="nonzero" clip-path="url(#71acd76ffb)"><path style=" stroke:none;fill-rule:nonzero;fill:#eedc9b;fill-opacity:1;" d="M 150.550781 95.820312 L 107.042969 226.660156 C 107 226.839844 106.773438 226.976562 106.546875 226.886719 C 106.363281 226.839844 106.230469 226.613281 106.320312 226.433594 L 144.757812 94.007812 C 145.210938 92.378906 146.929688 91.472656 148.515625 91.925781 C 150.144531 92.378906 151.050781 94.097656 150.597656 95.683594 C 150.597656 95.726562 150.597656 95.773438 150.550781 95.820312 Z M 150.550781 95.820312 "/></g><g clip-rule="nonzero" clip-path="url(#26c5402358)"><path style=" stroke:none;fill-rule:nonzero;fill:#eedc9b;fill-opacity:1;" d="M 176.71875 108.3125 L 109.261719 228.605469 C 109.171875 228.789062 108.945312 228.878906 108.71875 228.742188 C 108.539062 228.652344 108.492188 228.425781 108.582031 228.246094 L 171.332031 105.460938 C 172.101562 103.96875 173.914062 103.378906 175.40625 104.148438 C 176.902344 104.917969 177.488281 106.730469 176.71875 108.222656 C 176.765625 108.222656 176.765625 108.269531 176.71875 108.3125 Z M 176.71875 108.3125 "/></g><path style=" stroke:none;fill-rule:nonzero;fill:#eedc9b;fill-opacity:1;" d="M 136.335938 142.042969 L 136.425781 142.179688 C 139.867188 146.570312 142.628906 151.324219 144.710938 156.304688 L 147.382812 151.050781 C 145.480469 147.160156 143.21875 143.402344 140.546875 139.960938 L 140.546875 139.78125 L 139.957031 139.191406 C 139.234375 138.238281 138.464844 137.335938 137.695312 136.472656 L 135.972656 141.589844 C 136.109375 141.726562 136.199219 141.863281 136.335938 142.042969 Z M 136.335938 142.042969 "/><g clip-rule="nonzero" clip-path="url(#c91cb34aa8)"><path style=" stroke:none;fill-rule:nonzero;fill:#eedc9b;fill-opacity:1;" d="M 150.191406 157.796875 C 150.144531 157.617188 150.054688 157.4375 150.007812 157.253906 L 146.929688 162.6875 C 148.425781 168.03125 149.238281 173.554688 149.238281 179.257812 C 149.238281 194.5625 143.488281 209.140625 133.078125 220.320312 C 121.710938 232.546875 105.640625 239.519531 88.980469 239.519531 C 66.886719 239.519531 46.601562 227.429688 36.007812 208.007812 C 34.109375 204.519531 32.570312 200.855469 31.390625 197.097656 C 29.761719 191.800781 28.855469 186.230469 28.71875 180.617188 C 28.71875 180.164062 28.71875 179.710938 28.71875 179.257812 C 28.71875 174.277344 29.355469 169.296875 30.53125 164.5 C 32.433594 156.984375 35.691406 150.011719 40.265625 143.761719 C 43.570312 139.234375 47.507812 135.160156 51.945312 131.722656 C 62.496094 123.480469 75.171875 119.089844 88.570312 119 C 88.664062 119 88.796875 119 88.890625 119 C 89.070312 119 89.207031 119 89.386719 119 C 89.433594 119 89.523438 119 89.566406 119 L 89.613281 119 C 89.703125 119 89.792969 119 89.886719 119 C 90.066406 119 90.203125 119 90.382812 119 C 90.429688 119 90.429688 119 90.472656 119 L 90.519531 119 C 90.65625 119 90.746094 119 90.882812 119 C 91.0625 119 91.242188 119 91.378906 119 C 106.636719 119.632812 120.988281 125.972656 131.628906 136.699219 L 133.078125 131.675781 C 121.804688 121.171875 107.132812 114.96875 91.558594 114.335938 C 91.378906 114.335938 91.199219 114.335938 91.015625 114.335938 C 90.882812 114.335938 90.746094 114.335938 90.609375 114.335938 C 90.5625 114.335938 90.519531 114.335938 90.472656 114.335938 C 90.292969 114.335938 90.113281 114.335938 89.976562 114.335938 C 89.886719 114.335938 89.75 114.335938 89.660156 114.335938 C 89.566406 114.335938 89.476562 114.335938 89.433594 114.335938 C 89.117188 114.335938 88.84375 114.335938 88.527344 114.335938 C 81.238281 114.378906 74.128906 115.601562 67.339844 118.046875 C 60.773438 120.355469 54.617188 123.753906 49.09375 128.054688 C 44.339844 131.765625 40.082031 136.15625 36.507812 141.046875 C 31.574219 147.792969 28.042969 155.308594 26.003906 163.367188 C 24.78125 168.574219 24.101562 173.914062 24.101562 179.304688 C 24.101562 179.800781 24.101562 180.300781 24.101562 180.796875 C 24.238281 186.820312 25.1875 192.796875 27 198.546875 C 28.265625 202.621094 29.941406 206.558594 31.980469 210.316406 C 37.457031 220.414062 45.5625 228.878906 55.386719 234.855469 C 60.367188 237.886719 65.707031 240.195312 71.277344 241.78125 C 77.027344 243.410156 83.003906 244.226562 89.023438 244.226562 C 98.171875 244.226562 107.042969 242.371094 115.375 238.65625 C 119.359375 236.890625 123.207031 234.671875 126.738281 232.136719 C 130.269531 229.601562 133.574219 226.707031 136.515625 223.535156 C 147.746094 211.492188 153.902344 195.828125 153.902344 179.347656 C 153.8125 171.925781 152.589844 164.679688 150.191406 157.796875 Z M 150.191406 157.796875 "/></g><path style=" stroke:none;fill-rule:evenodd;fill:#eedc9b;fill-opacity:1;" d="M 122.03125 207.101562 L 109.804688 228.921875 C 109.578125 229.332031 109.125 229.511719 108.671875 229.421875 C 108.582031 229.421875 108.492188 229.375 108.449219 229.332031 C 107.996094 229.058594 107.8125 228.472656 108.039062 228.019531 L 119.765625 205.0625 C 118.5 203.976562 117.230469 202.9375 115.871094 201.941406 L 107.632812 226.839844 C 107.453125 227.339844 106.953125 227.609375 106.457031 227.476562 C 106.457031 227.476562 106.410156 227.476562 106.410156 227.476562 C 105.910156 227.292969 105.640625 226.75 105.777344 226.253906 L 113.382812 200.039062 C 90.382812 184.78125 59.054688 186.863281 38.226562 206.738281 C 38.136719 206.828125 38 206.921875 37.910156 207.011719 C 47.78125 225.121094 66.929688 237.390625 89.023438 237.390625 C 105.820312 237.390625 120.988281 230.238281 131.582031 218.871094 C 129.410156 215.296875 126.785156 211.902344 123.796875 208.777344 C 123.160156 208.1875 122.617188 207.644531 122.03125 207.101562 Z M 122.03125 207.101562 "/><path style=" stroke:none;fill-rule:evenodd;fill:#eedc9b;fill-opacity:1;" d="M 89.929688 122.574219 C 104.734375 122.9375 119.449219 128.640625 130.902344 139.507812 L 130.992188 139.144531 C 120.941406 128.597656 106.90625 121.804688 91.332031 121.21875 C 91.152344 121.21875 91.015625 121.21875 90.835938 121.21875 C 90.699219 121.21875 90.609375 121.21875 90.472656 121.21875 C 90.429688 121.21875 90.382812 121.21875 90.335938 121.21875 C 90.203125 121.21875 90.019531 121.21875 89.886719 121.21875 C 89.792969 121.21875 89.703125 121.21875 89.566406 121.21875 C 89.476562 121.21875 89.433594 121.21875 89.34375 121.21875 C 89.207031 121.21875 89.023438 121.21875 88.890625 121.21875 C 88.796875 121.21875 88.664062 121.21875 88.570312 121.21875 C 75.261719 121.308594 62.992188 125.878906 53.257812 133.488281 C 58.101562 130.136719 63.308594 127.554688 68.742188 125.789062 C 90.382812 129.636719 105.867188 149.511719 115.554688 169.933594 C 114.332031 147.25 101.292969 134.210938 89.929688 122.574219 Z M 89.929688 122.574219 "/><g style="fill:#eedc9b;fill-opacity:1;"><g transform="translate(168.722691, 199.382058)"><path style="stroke:none" d="M 1.21875 -33.96875 L 16.953125 -33.96875 L 16.953125 -27.546875 L 13.953125 -27.546875 L 13.953125 -20.21875 L 23.171875 -20.21875 L 23.171875 -27.546875 L 20.3125 -27.546875 L 20.3125 -33.96875 L 36.109375 -33.96875 L 36.109375 -27.546875 L 33.28125 -27.546875 L 33.28125 -6.421875 L 36.109375 -6.421875 L 36.109375 0 L 20.3125 0 L 20.3125 -6.421875 L 23.171875 -6.421875 L 23.171875 -13.75 L 13.953125 -13.75 L 13.953125 -6.421875 L 16.953125 -6.421875 L 16.953125 0 L 1.21875 0 L 1.21875 -6.421875 L 3.890625 -6.421875 L 3.890625 -27.546875 L 1.21875 -27.546875 Z M 1.21875 -33.96875 "/></g></g><g style="fill:#eedc9b;fill-opacity:1;"><g transform="translate(206.039169, 199.382058)"><path style="stroke:none" d="M 1.21875 -33.96875 L 17.34375 -33.96875 L 17.34375 -27.546875 L 14.328125 -27.546875 L 14.328125 -6.46875 L 17.34375 -6.46875 L 17.34375 0 L 1.21875 0 L 1.21875 -6.46875 L 4.28125 -6.46875 L 4.28125 -27.546875 L 1.21875 -27.546875 Z M 1.21875 -33.96875 "/></g></g><g style="fill:#eedc9b;fill-opacity:1;"><g transform="translate(224.600236, 199.382058)"><path style="stroke:none" d="M 16.515625 -27.703125 L 13.890625 -27.703125 L 13.890625 -19.78125 L 22.9375 -27.703125 L 19.4375 -27.703125 L 19.4375 -33.96875 L 35.625 -33.96875 L 35.625 -27.703125 L 32.796875 -27.703125 L 25.75 -21.625 L 35.578125 -6.3125 L 38.390625 -6.3125 L 38.390625 0 L 19.4375 0 L 19.4375 -6.3125 L 22.734375 -6.3125 L 17.5 -14.578125 L 13.890625 -11.515625 L 13.890625 -6.3125 L 16.515625 -6.3125 L 16.515625 0 L 1.21875 0 L 1.21875 -6.3125 L 3.84375 -6.3125 L 3.84375 -27.703125 L 1.21875 -27.703125 L 1.21875 -33.96875 L 16.515625 -33.96875 Z M 16.515625 -27.703125 "/></g></g><g style="fill:#eedc9b;fill-opacity:1;"><g transform="translate(264.200397, 199.382058)"><path style="stroke:none" d="M 39.265625 0 L 19.78125 0 L 19.78125 -6.359375 L 24.390625 -6.359375 L 23.375 -9.671875 L 13.40625 -9.671875 L 12.390625 -6.359375 L 16.1875 -6.359375 L 16.1875 0 L 0.734375 0 L 0.734375 -6.359375 L 4.03125 -6.359375 L 10.59375 -27.703125 L 8.59375 -27.703125 L 8.59375 -33.96875 L 27.265625 -33.96875 L 35.859375 -6.359375 L 39.265625 -6.359375 Z M 15.203125 -15.5 L 21.578125 -15.5 L 18.375 -26 Z M 15.203125 -15.5 "/></g></g><g style="fill:#eedc9b;fill-opacity:1;"><g transform="translate(304.189289, 199.382058)"><path style="stroke:none" d="M 1.21875 -33.96875 L 17.015625 -33.96875 C 19.828125 -33.96875 22.113281 -33.707031 23.875 -33.1875 C 25.644531 -32.664062 27.007812 -31.941406 27.96875 -31.015625 C 28.925781 -30.097656 29.582031 -29.039062 29.9375 -27.84375 C 30.289062 -26.644531 30.46875 -25.347656 30.46875 -23.953125 C 30.46875 -22.078125 29.796875 -20.503906 28.453125 -19.234375 C 27.109375 -17.972656 25.429688 -17.195312 23.421875 -16.90625 C 24.554688 -16.75 25.597656 -16.34375 26.546875 -15.6875 C 27.503906 -15.039062 28.28125 -14.222656 28.875 -13.234375 C 29.476562 -12.253906 29.78125 -11.179688 29.78125 -10.015625 C 29.78125 -8.972656 29.867188 -8.160156 30.046875 -7.578125 C 30.234375 -6.992188 30.535156 -6.703125 30.953125 -6.703125 C 31.703125 -6.703125 32.078125 -7.222656 32.078125 -8.265625 L 32.078125 -9.859375 L 35.328125 -9.859375 L 35.328125 -7.1875 C 35.328125 -5.863281 35.109375 -4.601562 34.671875 -3.40625 C 34.234375 -2.207031 33.503906 -1.242188 32.484375 -0.515625 C 31.460938 0.210938 30.046875 0.578125 28.234375 0.578125 C 25.054688 0.578125 22.691406 -0.210938 21.140625 -1.796875 C 19.585938 -3.378906 18.8125 -5.597656 18.8125 -8.453125 C 18.8125 -9.941406 18.703125 -11.070312 18.484375 -11.84375 C 18.273438 -12.625 17.832031 -13.171875 17.15625 -13.484375 C 16.476562 -13.796875 15.410156 -13.953125 13.953125 -13.953125 L 13.953125 -6.421875 L 16.90625 -6.421875 L 16.90625 0 L 1.21875 0 L 1.21875 -6.421875 L 3.9375 -6.421875 L 3.9375 -27.59375 L 1.21875 -27.59375 Z M 13.953125 -27.65625 L 13.953125 -19.390625 L 16.140625 -19.390625 C 17.554688 -19.390625 18.6875 -19.71875 19.53125 -20.375 C 20.375 -21.039062 20.796875 -22.023438 20.796875 -23.328125 C 20.796875 -24.753906 20.414062 -25.832031 19.65625 -26.5625 C 18.894531 -27.289062 17.800781 -27.65625 16.375 -27.65625 Z M 13.953125 -27.65625 "/></g></g><g style="fill:#eedc9b;fill-opacity:1;"><g transform="translate(339.999498, 199.382058)"><path style="stroke:none" d="M 1.21875 -33.96875 L 17.34375 -33.96875 L 17.34375 -27.546875 L 14.328125 -27.546875 L 14.328125 -6.46875 L 17.34375 -6.46875 L 17.34375 0 L 1.21875 0 L 1.21875 -6.46875 L 4.28125 -6.46875 L 4.28125 -27.546875 L 1.21875 -27.546875 Z M 1.21875 -33.96875 "/></g></g><g style="fill:#eedc9b;fill-opacity:1;"><g transform="translate(358.571184, 199.382058)"><path style="stroke:none" d=""/></g></g><g style="fill:#eedc9b;fill-opacity:1;"><g transform="translate(177.596683, 226.606792)"><path style="stroke:none" d="M 0.53125 -14.6875 L 7.359375 -14.6875 C 8.578125 -14.6875 9.566406 -14.570312 10.328125 -14.34375 C 11.085938 -14.125 11.675781 -13.8125 12.09375 -13.40625 C 12.507812 -13.007812 12.789062 -12.550781 12.9375 -12.03125 C 13.09375 -11.519531 13.171875 -10.960938 13.171875 -10.359375 C 13.171875 -9.546875 12.878906 -8.863281 12.296875 -8.3125 C 11.722656 -7.769531 11 -7.4375 10.125 -7.3125 C 10.613281 -7.238281 11.066406 -7.0625 11.484375 -6.78125 C 11.898438 -6.507812 12.234375 -6.15625 12.484375 -5.71875 C 12.742188 -5.289062 12.875 -4.828125 12.875 -4.328125 C 12.875 -3.878906 12.910156 -3.53125 12.984375 -3.28125 C 13.066406 -3.03125 13.203125 -2.90625 13.390625 -2.90625 C 13.710938 -2.90625 13.875 -3.128906 13.875 -3.578125 L 13.875 -4.265625 L 15.28125 -4.265625 L 15.28125 -3.109375 C 15.28125 -2.535156 15.1875 -1.988281 15 -1.46875 C 14.8125 -0.945312 14.492188 -0.53125 14.046875 -0.21875 C 13.609375 0.09375 12.992188 0.25 12.203125 0.25 C 10.835938 0.25 9.816406 -0.09375 9.140625 -0.78125 C 8.472656 -1.46875 8.140625 -2.425781 8.140625 -3.65625 C 8.140625 -4.300781 8.09375 -4.789062 8 -5.125 C 7.90625 -5.457031 7.710938 -5.691406 7.421875 -5.828125 C 7.128906 -5.960938 6.664062 -6.03125 6.03125 -6.03125 L 6.03125 -2.78125 L 7.3125 -2.78125 L 7.3125 0 L 0.53125 0 L 0.53125 -2.78125 L 1.703125 -2.78125 L 1.703125 -11.9375 L 0.53125 -11.9375 Z M 6.03125 -11.953125 L 6.03125 -8.390625 L 6.984375 -8.390625 C 7.597656 -8.390625 8.085938 -8.53125 8.453125 -8.8125 C 8.816406 -9.101562 9 -9.53125 9 -10.09375 C 9 -10.707031 8.832031 -11.171875 8.5 -11.484375 C 8.164062 -11.796875 7.691406 -11.953125 7.078125 -11.953125 Z M 6.03125 -11.953125 "/></g></g><g style="fill:#eedc9b;fill-opacity:1;"><g transform="translate(193.089421, 226.606792)"><path style="stroke:none" d="M 0.53125 -14.6875 L 13.203125 -14.6875 L 13.203125 -10.046875 L 9.5625 -10.046875 L 9.5625 -11.921875 L 6.203125 -11.921875 L 6.203125 -9.015625 L 10.1875 -9.015625 L 10.1875 -6.21875 L 6.203125 -6.21875 L 6.203125 -2.796875 L 9.5625 -2.796875 L 9.5625 -4.75 L 13.203125 -4.75 L 13.203125 0 L 0.53125 0 L 0.53125 -2.796875 L 1.84375 -2.796875 L 1.84375 -11.921875 L 0.53125 -11.921875 Z M 0.53125 -14.6875 "/></g></g><g style="fill:#eedc9b;fill-opacity:1;"><g transform="translate(206.816366, 226.606792)"><path style="stroke:none" d="M 0.53125 0 L 0.53125 -5.296875 L 4.4375 -5.296875 C 4.4375 -4.859375 4.53125 -4.503906 4.71875 -4.234375 C 4.90625 -3.960938 5.140625 -3.753906 5.421875 -3.609375 C 5.710938 -3.460938 6.003906 -3.359375 6.296875 -3.296875 C 6.597656 -3.242188 6.859375 -3.207031 7.078125 -3.1875 C 7.328125 -3.1875 7.585938 -3.210938 7.859375 -3.265625 C 8.140625 -3.316406 8.378906 -3.414062 8.578125 -3.5625 C 8.773438 -3.71875 8.875 -3.945312 8.875 -4.25 C 8.875 -4.488281 8.722656 -4.679688 8.421875 -4.828125 C 8.128906 -4.984375 7.742188 -5.128906 7.265625 -5.265625 C 6.796875 -5.410156 6.269531 -5.5625 5.6875 -5.71875 C 5.113281 -5.882812 4.539062 -6.085938 3.96875 -6.328125 C 3.394531 -6.566406 2.867188 -6.867188 2.390625 -7.234375 C 1.921875 -7.609375 1.535156 -8.0625 1.234375 -8.59375 C 0.941406 -9.125 0.796875 -9.773438 0.796875 -10.546875 C 0.796875 -11.335938 0.957031 -12.015625 1.28125 -12.578125 C 1.601562 -13.140625 2.019531 -13.601562 2.53125 -13.96875 C 3.039062 -14.332031 3.582031 -14.601562 4.15625 -14.78125 C 4.726562 -14.96875 5.273438 -15.0625 5.796875 -15.0625 C 6.679688 -15.0625 7.53125 -14.898438 8.34375 -14.578125 C 9.15625 -14.253906 9.769531 -13.703125 10.1875 -12.921875 L 10.40625 -14.6875 L 14.015625 -14.6875 L 14.015625 -9.421875 L 10.21875 -9.421875 C 10.21875 -10.203125 9.953125 -10.800781 9.421875 -11.21875 C 8.898438 -11.644531 8.269531 -11.859375 7.53125 -11.859375 C 7.21875 -11.859375 6.894531 -11.757812 6.5625 -11.5625 C 6.238281 -11.375 6.078125 -11.097656 6.078125 -10.734375 C 6.078125 -10.429688 6.226562 -10.171875 6.53125 -9.953125 C 6.832031 -9.734375 7.226562 -9.53125 7.71875 -9.34375 C 8.21875 -9.164062 8.757812 -8.984375 9.34375 -8.796875 C 9.9375 -8.609375 10.523438 -8.382812 11.109375 -8.125 C 11.703125 -7.875 12.242188 -7.570312 12.734375 -7.21875 C 13.234375 -6.875 13.632812 -6.445312 13.9375 -5.9375 C 14.238281 -5.4375 14.390625 -4.835938 14.390625 -4.140625 C 14.390625 -3.328125 14.222656 -2.632812 13.890625 -2.0625 C 13.554688 -1.488281 13.113281 -1.03125 12.5625 -0.6875 C 12.007812 -0.34375 11.40625 -0.09375 10.75 0.0625 C 10.09375 0.226562 9.453125 0.3125 8.828125 0.3125 C 7.765625 0.3125 6.867188 0.109375 6.140625 -0.296875 C 5.410156 -0.703125 4.84375 -1.144531 4.4375 -1.625 L 4.203125 0 Z M 0.53125 0 "/></g></g><g style="fill:#eedc9b;fill-opacity:1;"><g transform="translate(221.74153, 226.606792)"><path style="stroke:none" d="M 14.421875 -14.6875 L 14.421875 -9.21875 L 11.328125 -9.21875 L 11.328125 -11.921875 L 9.5625 -11.921875 L 9.5625 -2.796875 L 11.3125 -2.796875 L 11.3125 0 L 3.484375 0 L 3.484375 -2.796875 L 5.21875 -2.796875 L 5.21875 -11.921875 L 3.40625 -11.921875 L 3.40625 -9.21875 L 0.3125 -9.21875 L 0.3125 -14.6875 Z M 14.421875 -14.6875 "/></g></g><g style="fill:#eedc9b;fill-opacity:1;"><g transform="translate(236.477506, 226.606792)"><path style="stroke:none" d="M 16.984375 0 L 8.546875 0 L 8.546875 -2.75 L 10.546875 -2.75 L 10.109375 -4.1875 L 5.796875 -4.1875 L 5.359375 -2.75 L 7 -2.75 L 7 0 L 0.3125 0 L 0.3125 -2.75 L 1.75 -2.75 L 4.578125 -11.984375 L 3.71875 -11.984375 L 3.71875 -14.6875 L 11.796875 -14.6875 L 15.515625 -2.75 L 16.984375 -2.75 Z M 6.578125 -6.703125 L 9.328125 -6.703125 L 7.9375 -11.25 Z M 6.578125 -6.703125 "/></g></g><g style="fill:#eedc9b;fill-opacity:1;"><g transform="translate(253.778086, 226.606792)"><path style="stroke:none" d="M 0.3125 -14.6875 L 7 -14.6875 L 7 -11.984375 L 5.859375 -11.984375 L 5.859375 -7.4375 C 5.859375 -6.320312 5.9375 -5.460938 6.09375 -4.859375 C 6.257812 -4.265625 6.5 -3.863281 6.8125 -3.65625 C 7.132812 -3.445312 7.519531 -3.34375 7.96875 -3.34375 C 8.394531 -3.34375 8.765625 -3.429688 9.078125 -3.609375 C 9.398438 -3.796875 9.648438 -4.179688 9.828125 -4.765625 C 10.003906 -5.359375 10.09375 -6.253906 10.09375 -7.453125 L 10.09375 -11.921875 L 8.953125 -11.921875 L 8.953125 -14.6875 L 15.171875 -14.6875 L 15.171875 -11.984375 L 14.03125 -11.984375 L 14.03125 -6.875 C 14.03125 -4.375 13.519531 -2.539062 12.5 -1.375 C 11.476562 -0.21875 9.976562 0.359375 8 0.359375 C 5.882812 0.285156 4.269531 -0.320312 3.15625 -1.46875 C 2.039062 -2.613281 1.484375 -4.378906 1.484375 -6.765625 L 1.484375 -11.953125 L 0.3125 -11.953125 Z M 0.3125 -14.6875 "/></g></g><g style="fill:#eedc9b;fill-opacity:1;"><g transform="translate(269.270824, 226.606792)"><path style="stroke:none" d="M 0.53125 -14.6875 L 7.359375 -14.6875 C 8.578125 -14.6875 9.566406 -14.570312 10.328125 -14.34375 C 11.085938 -14.125 11.675781 -13.8125 12.09375 -13.40625 C 12.507812 -13.007812 12.789062 -12.550781 12.9375 -12.03125 C 13.09375 -11.519531 13.171875 -10.960938 13.171875 -10.359375 C 13.171875 -9.546875 12.878906 -8.863281 12.296875 -8.3125 C 11.722656 -7.769531 11 -7.4375 10.125 -7.3125 C 10.613281 -7.238281 11.066406 -7.0625 11.484375 -6.78125 C 11.898438 -6.507812 12.234375 -6.15625 12.484375 -5.71875 C 12.742188 -5.289062 12.875 -4.828125 12.875 -4.328125 C 12.875 -3.878906 12.910156 -3.53125 12.984375 -3.28125 C 13.066406 -3.03125 13.203125 -2.90625 13.390625 -2.90625 C 13.710938 -2.90625 13.875 -3.128906 13.875 -3.578125 L 13.875 -4.265625 L 15.28125 -4.265625 L 15.28125 -3.109375 C 15.28125 -2.535156 15.1875 -1.988281 15 -1.46875 C 14.8125 -0.945312 14.492188 -0.53125 14.046875 -0.21875 C 13.609375 0.09375 12.992188 0.25 12.203125 0.25 C 10.835938 0.25 9.816406 -0.09375 9.140625 -0.78125 C 8.472656 -1.46875 8.140625 -2.425781 8.140625 -3.65625 C 8.140625 -4.300781 8.09375 -4.789062 8 -5.125 C 7.90625 -5.457031 7.710938 -5.691406 7.421875 -5.828125 C 7.128906 -5.960938 6.664062 -6.03125 6.03125 -6.03125 L 6.03125 -2.78125 L 7.3125 -2.78125 L 7.3125 0 L 0.53125 0 L 0.53125 -2.78125 L 1.703125 -2.78125 L 1.703125 -11.9375 L 0.53125 -11.9375 Z M 6.03125 -11.953125 L 6.03125 -8.390625 L 6.984375 -8.390625 C 7.597656 -8.390625 8.085938 -8.53125 8.453125 -8.8125 C 8.816406 -9.101562 9 -9.53125 9 -10.09375 C 9 -10.707031 8.832031 -11.171875 8.5 -11.484375 C 8.164062 -11.796875 7.691406 -11.953125 7.078125 -11.953125 Z M 6.03125 -11.953125 "/></g></g><g style="fill:#eedc9b;fill-opacity:1;"><g transform="translate(284.763562, 226.606792)"><path style="stroke:none" d="M 16.984375 0 L 8.546875 0 L 8.546875 -2.75 L 10.546875 -2.75 L 10.109375 -4.1875 L 5.796875 -4.1875 L 5.359375 -2.75 L 7 -2.75 L 7 0 L 0.3125 0 L 0.3125 -2.75 L 1.75 -2.75 L 4.578125 -11.984375 L 3.71875 -11.984375 L 3.71875 -14.6875 L 11.796875 -14.6875 L 15.515625 -2.75 L 16.984375 -2.75 Z M 6.578125 -6.703125 L 9.328125 -6.703125 L 7.9375 -11.25 Z M 6.578125 -6.703125 "/></g></g><g style="fill:#eedc9b;fill-opacity:1;"><g transform="translate(302.064142, 226.606792)"><path style="stroke:none" d="M 16.625 -11.984375 L 15.234375 -11.984375 L 15.234375 0 L 10.71875 0 L 5.359375 -8 L 5.359375 -2.71875 L 6.984375 -2.71875 L 6.984375 0 L 0.53125 0 L 0.53125 -2.71875 L 1.765625 -2.71875 L 1.765625 -11.984375 L 0.546875 -11.984375 L 0.546875 -14.6875 L 6.578125 -14.6875 L 11.734375 -6.984375 L 11.734375 -11.984375 L 10.296875 -11.984375 L 10.296875 -14.6875 L 16.625 -14.6875 Z M 16.625 -11.984375 "/></g></g><g style="fill:#eedc9b;fill-opacity:1;"><g transform="translate(319.217574, 226.606792)"><path style="stroke:none" d="M 14.421875 -14.6875 L 14.421875 -9.21875 L 11.328125 -9.21875 L 11.328125 -11.921875 L 9.5625 -11.921875 L 9.5625 -2.796875 L 11.3125 -2.796875 L 11.3125 0 L 3.484375 0 L 3.484375 -2.796875 L 5.21875 -2.796875 L 5.21875 -11.921875 L 3.40625 -11.921875 L 3.40625 -9.21875 L 0.3125 -9.21875 L 0.3125 -14.6875 Z M 14.421875 -14.6875 "/></g></g><g style="fill:#eedc9b;fill-opacity:1;"><g transform="translate(333.95355, 226.606792)"><path style="stroke:none" d="M 0.53125 -14.6875 L 13.203125 -14.6875 L 13.203125 -10.046875 L 9.5625 -10.046875 L 9.5625 -11.921875 L 6.203125 -11.921875 L 6.203125 -9.015625 L 10.1875 -9.015625 L 10.1875 -6.21875 L 6.203125 -6.21875 L 6.203125 -2.796875 L 9.5625 -2.796875 L 9.5625 -4.75 L 13.203125 -4.75 L 13.203125 0 L 0.53125 0 L 0.53125 -2.796875 L 1.84375 -2.796875 L 1.84375 -11.921875 L 0.53125 -11.921875 Z M 0.53125 -14.6875 "/></g></g></g></svg>